<?xml version="1.0" standalone="no"?>
<!DOCTYPE svg PUBLIC "-//W3C//DTD SVG 20010904//EN"
 "http://www.w3.org/TR/2001/REC-SVG-20010904/DTD/svg10.dtd">
<svg version="1.0" xmlns="http://www.w3.org/2000/svg"
 width="500.000000pt" height="500.000000pt" viewBox="0 0 500.000000 500.000000"
 preserveAspectRatio="xMidYMid meet">

<g transform="translate(0.000000,500.000000) scale(0.100000,-0.100000)"
fill="#000000" stroke="none">
<path d="M285 4836 c-42 -18 -76 -42 -111 -80 -87 -92 -85 -77 -82 -657 l3
-504 32 -68 c40 -84 124 -174 201 -215 55 -29 584 -216 3062 -1085 l1115 -391
90 0 c79 -1 96 3 140 26 69 36 128 102 154 173 22 58 22 67 19 459 -5 448 -5
454 -78 601 -72 147 -191 268 -328 335 -37 18 -956 345 -2042 727 -2196 773
-2055 729 -2175 679z"/>
<path d="M1550 2105 c-86 -18 -51 -7 -660 -220 -294 -103 -555 -199 -580 -213
-69 -41 -135 -115 -177 -199 l-38 -77 -3 -505 c-3 -587 -6 -567 89 -663 48
-48 66 -60 128 -79 53 -16 87 -20 125 -16 30 3 720 241 1676 576 1764 620
1680 587 1680 661 0 72 12 66 -860 374 -1024 360 -979 345 -1067 362 -91 17
-226 17 -313 -1z"/>
</g>
</svg>
